# xmcd
#
# Track frame offsets:
#	187
#	17422
#	50352
#	87042
#	113210
#	133335
#	166772
#	195010
#	213970
#	237377
#	256730
#	284057
#	302615
#	325797
#
# Disc length: 4603 seconds
#
# Revision: 1
# Processed by: cddbd v1.5.1PL0 Copyright (c) Steve Scherf et al.
# Submitted via: audiograbber 1.83.01
#
DISCID=b311f90e
DTITLE=Midnight Star - The Best Of Midnight Star
DYEAR=1995
DGENRE=Rhythm and Blues
TTITLE0=I've Been Watching You
TTITLE1=Hot Spot
TTITLE2=Freak-A-Zoid
TTITLE3=Wet My Whistle
TTITLE4=No Parking On The Dance Floor
TTITLE5=Operator
TTITLE6=Scientific Love
TTITLE7=Body Snatchers
TTITLE8=Midas Touch
TTITLE9=Headlines
TTITLE10=Planetary Invasion
TTITLE11=Playmates
TTITLE12=Do It One More Time
TTITLE13=Slow Jam
EXTD=
EXTT0=
EXTT1=
EXTT2=
EXTT3=
EXTT4=
EXTT5=
EXTT6=
EXTT7=
EXTT8=
EXTT9=
EXTT10=
EXTT11=
EXTT12=
EXTT13=
PLAYORDER=
